<?xml version="1.0" encoding="UTF-8"?>
<svg version="1.1" xmlns="http://www.w3.org/2000/svg" width="48" height="48">
    <path d="M0 0 C15.84 0 31.68 0 48 0 C48 15.84 48 31.68 48 48 C32.16 48 16.32 48 0 48 C0 32.16 0 16.32 0 0 Z " fill="#FEFEFD" transform="translate(0,0)"/>
    <path d="M0 0 C4.82714193 6.71602356 6.67034991 13.09954063 5.65234375 21.30078125 C4.66379741 25.39111371 2.85820408 28.89248217 0 32 C-0.66 32 -1.32 32 -2 32 C-2.20625 32.598125 -2.4125 33.19625 -2.625 33.8125 C-4.64132557 37.02029068 -6.43622631 37.68703075 -10 39 C-19.53925208 40.90785042 -25.96146018 39.27529175 -34 34 C-32.68995776 31.10984919 -31.28755525 29.03557826 -29.05078125 26.79199219 C-28.45676514 26.19167175 -27.86274902 25.59135132 -27.25073242 24.97283936 C-26.61111572 24.33727112 -25.97149902 23.70170288 -25.3125 23.046875 C-24.65419189 22.38665344 -23.99588379 21.72643188 -23.31762695 21.04620361 C-21.92807708 19.65529499 -20.53600726 18.26689992 -19.14160156 16.88085938 C-17.00090714 14.75090259 -14.8711209 12.61045504 -12.7421875 10.46875 C-11.39126613 9.11914961 -10.03972482 7.77016941 -8.6875 6.421875 C-8.0478833 5.77820984 -7.4082666 5.13454468 -6.74926758 4.47137451 C-2.22992911 0 -2.22992911 0 0 0 Z " fill="#FBC96D" transform="translate(38,4)"/>
</svg>
